<svg xmlns="http://www.w3.org/2000/svg" width="46" height="46" fill="none" viewBox="0 0 300 300">
  <path fill="#475800" d="M150 237.5V75s-12.5-25-56.25-25S37.5 75 37.5 75v162.5s12.5-25 56.25-25 56.25 25 56.25 25Z"/>
  <mask id="a" width="113" height="188" x="37" y="50" maskUnits="userSpaceOnUse" style="mask-type:alpha">
    <path fill="#475800" d="M150 237.5V75s-12.5-25-56.25-25S37.5 75 37.5 75v162.5s12.5-25 56.25-25 56.25 25 56.25 25Z"/>
  </mask>
  <g mask="url(#a)">
    <path fill="#670303" d="M62.5 51.875c0-1.035.84-1.875 1.875-1.875h33.75c1.035 0 1.875.84 1.875 1.875v53.081c0 2.784-3.366 4.178-5.335 2.209L83.46 95.96a3.125 3.125 0 0 0-4.42 0l-11.205 11.205c-1.969 1.969-5.335.575-5.335-2.209V51.875Z"/>
  </g>
  <path fill="#475800" d="M162.5 237.5V75s11.111-25 50-25c38.889 0 50 25 50 25v162.5s-11.111-25-50-25c-38.889 0-50 25-50 25Z"/>
  <path fill="#fff" d="M52.05 127.5h8.3c2.833 0 4.9.666 6.2 2 1.3 1.3 1.95 3.316 1.95 6.05v1.4c0 1.8-.3 3.266-.9 4.4-.567 1.134-1.45 1.95-2.65 2.45v.1c2.733.934 4.1 3.366 4.1 7.3v3c0 2.7-.717 4.766-2.15 6.2-1.4 1.4-3.467 2.1-6.2 2.1h-8.65v-35Zm7.65 14.25c1.1 0 1.917-.284 2.45-.85.567-.566.85-1.516.85-2.85v-1.95c0-1.266-.233-2.184-.7-2.75-.433-.566-1.133-.85-2.1-.85h-2.65v9.25h2.15Zm1 15.75c.967 0 1.683-.25 2.15-.75.467-.534.7-1.434.7-2.7V151c0-1.6-.283-2.7-.85-3.3-.533-.634-1.433-.95-2.7-.95h-2.45v10.75h3.15Zm23.515 5.5c-2.7 0-4.767-.766-6.2-2.3-1.433-1.534-2.15-3.7-2.15-6.5v-18.4c0-2.8.717-4.966 2.15-6.5 1.433-1.534 3.5-2.3 6.2-2.3s4.766.766 6.2 2.3c1.433 1.534 2.15 3.7 2.15 6.5v18.4c0 2.8-.717 4.966-2.15 6.5-1.434 1.534-3.5 2.3-6.2 2.3Zm0-5c1.9 0 2.85-1.15 2.85-3.45v-19.1c0-2.3-.95-3.45-2.85-3.45-1.9 0-2.85 1.15-2.85 3.45v19.1c0 2.3.95 3.45 2.85 3.45Zm24.019 5c-2.7 0-4.766-.766-6.2-2.3-1.433-1.534-2.15-3.7-2.15-6.5v-18.4c0-2.8.717-4.966 2.15-6.5 1.434-1.534 3.5-2.3 6.2-2.3s4.767.766 6.2 2.3c1.434 1.534 2.15 3.7 2.15 6.5v18.4c0 2.8-.716 4.966-2.15 6.5-1.433 1.534-3.5 2.3-6.2 2.3Zm0-5c1.9 0 2.85-1.15 2.85-3.45v-19.1c0-2.3-.95-3.45-2.85-3.45-1.9 0-2.85 1.15-2.85 3.45v19.1c0 2.3.95 3.45 2.85 3.45Zm16.07-30.5h5.5v14.75l7-14.75h5.5l-6.55 12.85 6.65 22.15h-5.75l-4.65-15.6-2.2 4.45v11.15h-5.5v-35Zm52.746 0h5.5v14.25h5.9V127.5h5.5v35h-5.5v-15.75h-5.9v15.75h-5.5v-35Zm32.996 35.5c-2.666 0-4.7-.75-6.1-2.25-1.4-1.534-2.1-3.716-2.1-6.55v-26.7h5.5v27.1c0 1.2.234 2.066.7 2.6.5.534 1.2.8 2.1.8.9 0 1.584-.266 2.05-.8.5-.534.75-1.4.75-2.6v-27.1h5.3v26.7c0 2.834-.7 5.016-2.1 6.55-1.4 1.5-3.433 2.25-6.1 2.25Zm16.118-35.5h8.3c2.832 0 4.9.666 6.2 2 1.3 1.3 1.95 3.316 1.95 6.05v1.4c0 1.8-.3 3.266-.9 4.4-.568 1.134-1.45 1.95-2.65 2.45v.1c2.732.934 4.1 3.366 4.1 7.3v3c0 2.7-.718 4.766-2.15 6.2-1.4 1.4-3.468 2.1-6.2 2.1h-8.65v-35Zm7.65 14.25c1.1 0 1.916-.284 2.45-.85.566-.566.85-1.516.85-2.85v-1.95c0-1.266-.234-2.184-.7-2.75-.434-.566-1.134-.85-2.1-.85h-2.65v9.25h2.15Zm1 15.75c.966 0 1.682-.25 2.15-.75.466-.534.7-1.434.7-2.7V151c0-1.6-.284-2.7-.85-3.3-.534-.634-1.434-.95-2.7-.95h-2.45v10.75h3.15Z"/>
</svg>
